<?xml version="1.0" encoding="UTF-8"?>
<svg version="1.1" xmlns="http://www.w3.org/2000/svg" width="1024" height="1024">
<path d="M0 0 C337.92 0 675.84 0 1024 0 C1024 337.92 1024 675.84 1024 1024 C686.08 1024 348.16 1024 0 1024 C0 686.08 0 348.16 0 0 Z " fill="#283030" transform="translate(0,0)"/>
<path d="M0 0 C1.46973498 1.21551055 2.92781539 2.44522648 4.375 3.6875 C5.57576172 4.67169922 5.57576172 4.67169922 6.80078125 5.67578125 C20.50210756 17.33149741 30.78973417 33.20832874 35.375 50.6875 C35.67857422 51.68330078 35.67857422 51.68330078 35.98828125 52.69921875 C37.32924183 57.63431858 37.47715072 62.40205058 37.42578125 67.4921875 C37.42211548 68.18562256 37.41844971 68.87905762 37.41467285 69.59350586 C37.40516626 71.29152879 37.39059612 72.98952208 37.375 74.6875 C38.46374924 74.67750725 38.46374924 74.67750725 39.57449341 74.66731262 C46.43029698 74.6070858 53.28606077 74.56146688 60.14206123 74.53206348 C63.66643732 74.51643838 67.19059394 74.49525856 70.71484375 74.46118164 C74.77085421 74.42221048 78.8266358 74.40776477 82.8828125 74.39453125 C84.14239777 74.37904739 85.40198303 74.36356354 86.69973755 74.34761047 C88.47089432 74.34727058 88.47089432 74.34727058 90.27783203 74.34692383 C91.83003952 74.33693108 91.83003952 74.33693108 93.41360474 74.32673645 C98.35352975 74.92852876 101.56564708 76.91493585 105.125 80.3125 C111.14760132 88.26969581 110.21849516 101.08282573 110.9609375 110.69140625 C111.10344784 112.47471107 111.2465421 114.25796932 111.3901825 116.04118347 C111.69320687 119.81741979 111.99237331 123.59393317 112.2883606 127.37072754 C112.75301464 133.29940945 113.22618894 139.22739162 113.70092773 145.15527344 C114.17152762 151.0360162 114.6416865 156.91679131 115.10868835 162.79782104 C116.18465398 176.34731346 117.293212 189.89359099 118.4375 203.4375 C119.53143521 216.42882438 120.59967332 229.42208482 121.64720345 242.41722488 C121.84478264 244.86827911 122.04254536 247.31931847 122.24034119 249.77035522 C123.31966048 263.14890834 123.31966048 263.14890834 123.81399536 269.32727051 C125.17190032 286.2981508 126.58792708 303.26025835 128.15423584 320.21326637 C129.21751905 331.73816949 130.13845265 343.26647638 130.9375 354.8125 C131.18257951 358.29443777 131.43029692 361.77618096 131.6796875 365.2578125 C131.73881821 366.08444397 131.79794891 366.91107544 131.85887146 367.76275635 C132.34103277 374.41288086 132.93623916 381.0494795 133.5625 387.6875 C136.11155201 416.06539608 136.11155201 416.06539608 130.375 423.6875 C125.88659128 428.53198289 121.38080739 432.32100862 114.59709764 432.94165033 C113.06711786 432.94457671 113.06711786 432.94457671 111.5062294 432.94756222 C110.32443674 432.95462781 109.14264409 432.9616934 107.92503953 432.9689731 C106.63060229 432.96655802 105.33616505 432.96414293 104.00250244 432.96165466 C102.61041595 432.96610777 101.21833199 432.97142205 99.82625175 432.97752339 C96.00117252 432.9917052 92.17617454 432.99336665 88.35107279 432.99292648 C84.22550685 432.99457453 80.0999744 433.00764081 75.97442627 433.01911926 C66.95374507 433.04196923 57.93308739 433.04988984 48.91238117 433.05494571 C43.27943128 433.05820267 37.64648821 433.06472514 32.01354218 433.0719471 C16.41618698 433.09151286 0.81883814 433.10791726 -14.77853012 433.11082363 C-16.27569953 433.11110499 -16.27569953 433.11110499 -17.80311479 433.11139202 C-19.82651536 433.11175827 -21.84991593 433.11212197 -23.8733165 433.11248314 C-24.87772947 433.11266595 -25.88214245 433.11284876 -26.91699219 433.11303711 C-27.92263168 433.11321766 -28.92827117 433.11339821 -29.96438459 433.11358423 C-46.26015914 433.11712604 -62.55580156 433.14414898 -78.85153028 433.181535 C-95.58383274 433.21961531 -112.31606962 433.23898109 -129.04841638 433.23928314 C-138.44235494 433.23986777 -147.83613588 433.24836309 -157.23003387 433.27728081 C-165.2288995 433.30179096 -173.22755 433.30908006 -181.22644302 433.29403328 C-185.30663707 433.2868629 -189.38640629 433.28772702 -193.46655273 433.31044388 C-197.20493136 433.33105825 -200.94255922 433.32841142 -204.68092993 433.30756903 C-206.66733554 433.30243062 -208.65375836 433.32183486 -210.64006591 433.34223074 C-219.28236859 433.26112547 -225.36571186 431.68793638 -231.74609375 425.6953125 C-232.18050781 425.07398438 -232.61492187 424.45265625 -233.0625 423.8125 C-233.51496094 423.19632813 -233.96742188 422.58015625 -234.43359375 421.9453125 C-237.39465046 416.33386733 -237.96347794 410.62526459 -237.8984375 404.3828125 C-237.89363373 403.56982697 -237.88882996 402.75684143 -237.88388062 401.91921997 C-237.70330489 390.42122482 -236.41493974 378.99326725 -235.25 367.5625 C-234.80107252 363.0602504 -234.35716733 358.55751347 -233.9140625 354.0546875 C-233.74836258 352.38318634 -233.74836258 352.38318634 -233.57931519 350.67791748 C-232.73919425 342.11252424 -232.03368689 333.54089742 -231.36816406 324.9604187 C-230.55824774 314.61249513 -229.56804499 304.28430516 -228.56613159 293.95349121 C-226.74373386 275.12609422 -225.06048249 256.29342966 -223.5625 237.4375 C-222.35613899 222.27735382 -221.03559146 207.1386284 -219.51150513 192.00717163 C-218.29400803 179.89475854 -217.17464138 167.7750812 -216.109375 155.6484375 C-216.04323376 154.8957918 -215.97709251 154.1431461 -215.90894699 153.36769295 C-215.30587553 146.49915913 -214.70558044 139.63038595 -214.11138916 132.76107788 C-213.4011355 124.55061234 -212.67962971 116.34143625 -211.93395996 108.13409424 C-211.65816968 105.05752349 -211.39851067 101.9800427 -211.14160156 98.90185547 C-210.99411286 97.29773389 -210.84547888 95.69371688 -210.6953125 94.08984375 C-210.58203613 92.79425537 -210.46875977 91.49866699 -210.35205078 90.16381836 C-209.1332693 84.33634033 -206.95670692 80.32430058 -202.21679688 76.78051758 C-196.53244847 73.58155737 -190.50743506 74.06568211 -184.15625 74.19921875 C-182.24217346 74.20983086 -182.24217346 74.20983086 -180.28942871 74.22065735 C-176.92190653 74.24380436 -173.5561277 74.28859734 -170.18908691 74.34417725 C-166.74339743 74.3956313 -163.2975267 74.41822665 -159.8515625 74.44335938 C-153.10889934 74.49833742 -146.36705016 74.58189805 -139.625 74.6875 C-139.63057419 73.79401855 -139.63614838 72.90053711 -139.64189148 71.97998047 C-139.6483947 70.22258545 -139.6483947 70.22258545 -139.6550293 68.4296875 C-139.66060349 67.26808105 -139.66617767 66.10647461 -139.67192078 64.90966797 C-139.33601978 41.84249968 -125.4071981 20.72327648 -109.45703125 5.140625 C-79.34634461 -20.94145942 -32.30288213 -24.45305588 0 0 Z " fill="#79B39C" transform="translate(562.625,182.3125)"/>
<path d="M0 0 C9.37080401 5.36571179 17.56404121 12.75286912 25.453125 20.05078125 C29.65453741 18.30974931 32.81291785 15.36791572 36.265625 12.48828125 C51.69015059 -0.06801618 68.879567 -10.44547751 89.453125 -8.94921875 C97.68360833 -7.11422574 102.60284621 -2.4835445 107.03125 4.41015625 C112.07225034 13.77201402 113.65002426 23.40097021 113.640625 33.86328125 C113.63981934 34.79164795 113.63901367 35.72001465 113.63818359 36.67651367 C113.54218997 47.63578628 112.53325337 58.49034113 109.453125 69.05078125 C110.4225 69.14488281 111.391875 69.23898437 112.390625 69.3359375 C129.07771291 71.75271705 149.2349752 83.66644419 159.453125 97.05078125 C163.5680092 103.57176161 167.74213053 110.58600482 167.0625 118.55859375 C163.7724471 132.01406649 154.42370159 141.74352279 142.96337891 148.85693359 C119.22659568 163.05078125 119.22659568 163.05078125 109.453125 163.05078125 C109.65808594 163.67984375 109.86304688 164.30890625 110.07421875 164.95703125 C110.47833984 166.2409375 110.47833984 166.2409375 110.890625 167.55078125 C111.15746094 168.38609375 111.42429687 169.22140625 111.69921875 170.08203125 C116.36100668 188.43933087 116.02788634 210.95725748 106.99609375 227.76171875 C102.84403857 234.53208841 98.24180082 238.89507073 90.453125 241.05078125 C69.22431098 243.40953836 50.90757573 232.57905079 34.88061523 219.76904297 C32.28005422 217.64431276 29.75954686 215.49477915 27.453125 213.05078125 C24.25013236 214.46721577 22.09228298 216.19205907 19.578125 218.61328125 C10.1683603 227.11292117 -0.83223751 233.30407099 -12.546875 238.05078125 C-13.37445313 238.39109375 -14.20203125 238.73140625 -15.0546875 239.08203125 C-23.69922269 242.16325171 -35.34386815 243.11441243 -43.84765625 239.1484375 C-52.84339238 233.33739876 -57.28516581 224.27526589 -59.92724609 214.19970703 C-61.04466935 208.5210131 -61.03043052 202.88365464 -60.984375 197.11328125 C-60.98115234 195.85233643 -60.97792969 194.5913916 -60.97460938 193.29223633 C-60.81589416 182.52354614 -59.25855913 172.44960566 -56.546875 162.05078125 C-57.66449219 161.96054687 -58.78210938 161.8703125 -59.93359375 161.77734375 C-65.0716197 161.12873436 -69.59025854 159.38307766 -74.359375 157.42578125 C-75.24157715 157.06605225 -76.1237793 156.70632324 -77.03271484 156.33569336 C-92.00857451 150.06977602 -105.46869793 140.669834 -112.67578125 125.70703125 C-114.64461914 119.70340002 -114.63409871 112.51300821 -112.7421875 106.48828125 C-111.52475086 104.13736911 -110.16897081 102.14343788 -108.546875 100.05078125 C-107.9384375 99.25285156 -107.33 98.45492187 -106.703125 97.6328125 C-94.67203342 83.15509968 -77.31856568 74.39885328 -59.546875 69.05078125 C-58.556875 69.05078125 -57.566875 69.05078125 -56.546875 69.05078125 C-56.83691406 68.15552734 -56.83691406 68.15552734 -57.1328125 67.2421875 C-62.88122277 48.09030576 -65.00075831 24.48486258 -55.921875 6.17578125 C-42.83162759 -15.9242125 -19.58566461 -10.25392979 0 0 Z " fill="#272E2E" transform="translate(485.546875,343.94921875)"/>
<path d="M0 0 C9.24 0 18.48 0 28 0 C28 45.21 28 90.42 28 137 C19.09 137 10.18 137 1 137 C0.67 133.7 0.34 130.4 0 127 C-0.86625 128.299375 -0.86625 128.299375 -1.75 129.625 C-6.49081788 135.36029979 -14.71012533 139.00338119 -22 140 C-36.73365281 140.93547002 -47.719103 138.06877205 -59.00390625 128.2578125 C-71.53269269 115.19648257 -73.60438766 99.02898261 -73.30859375 81.81640625 C-72.7872001 68.21473861 -66.28721933 56.2003207 -56.44140625 46.85546875 C-45.97437603 38.90052579 -34.988537 36.11441793 -22 37 C-13.1632464 38.49818524 -7.2321179 42.7678821 -1 49 C-0.67 32.83 -0.34 16.66 0 0 Z " fill="#7AB59D" transform="translate(420,662)"/>
<path d="M0 0 C9.75109773 8.45944113 16.10076162 19.08517899 18 32 C19.20174368 50.30879521 17.32947848 65.38049563 5.34375 80.0234375 C-3.31480061 89.37630585 -14.42112347 93.88099915 -27.01904297 94.40258789 C-39.28984593 94.60601066 -44.46012218 91.3473931 -54 83 C-54.33 98.51 -54.66 114.02 -55 130 C-64.24 130 -73.48 130 -83 130 C-83 84.79 -83 39.58 -83 -7 C-74.09 -7 -65.18 -7 -56 -7 C-55.67 -3.04 -55.34 0.92 -55 5 C-53.4840625 3.14375 -53.4840625 3.14375 -51.9375 1.25 C-38.58556729 -13.83421939 -15.04332943 -11.62158851 0 0 Z " fill="#79B49C" transform="translate(876,708)"/>
<path d="M0 0 C10.99584428 8.10823996 15.81718004 18.67913041 19.24609375 31.65625 C19.43945312 32.30335938 19.6328125 32.95046875 19.83203125 33.6171875 C22.87134374 48.58436787 18.51710714 65.1525509 10.24609375 77.65625 C4.34970075 86.35864352 -5.94417893 93.09978754 -16.23046875 95.3359375 C-26.33623662 96.61871299 -35.63943087 96.5932575 -44.75390625 91.65625 C-47.39390625 89.34625 -50.03390625 87.03625 -52.75390625 84.65625 C-53.08390625 100.16625 -53.41390625 115.67625 -53.75390625 131.65625 C-62.66390625 131.65625 -71.57390625 131.65625 -80.75390625 131.65625 C-80.75390625 86.44625 -80.75390625 41.23625 -80.75390625 -5.34375 C-72.17390625 -5.34375 -63.59390625 -5.34375 -54.75390625 -5.34375 C-54.42390625 -1.38375 -54.09390625 2.57625 -53.75390625 6.65625 C-52.94953125 5.604375 -52.14515625 4.5525 -51.31640625 3.46875 C-38.4300582 -11.54506117 -15.44164835 -10.08030804 0 0 Z " fill="#7AB49D" transform="translate(649.75390625,706.34375)"/>
<path d="M0 0 C9.82437009 9.35920105 16.21881971 21.25400326 16.953125 34.9375 C17.25608256 51.34706177 14.16751307 64.65726497 2.625 76.96484375 C-2.80562858 82.12320504 -8.295045 85.43686331 -15.25 88.15234375 C-16.50490234 88.65894531 -16.50490234 88.65894531 -17.78515625 89.17578125 C-29.9586995 93.27753152 -44.31502235 92.66200228 -56.1015625 87.7578125 C-70.30555578 80.5148333 -78.63567817 69.90816536 -83.99609375 55.08984375 C-87.78023859 41.72789783 -86.07533995 26.02966217 -79.51953125 13.96875 C-71.59020539 1.29132482 -59.96703506 -7.81804585 -45.25 -11.28515625 C-28.98166009 -13.65484897 -12.93656406 -10.62325487 0 0 Z " fill="#7AB49D" transform="translate(320.25,710.84765625)"/>
<path d="M0 0 C8.85821194 6.97979646 15.61874609 18.63707337 17.9375 29.62890625 C19.36172621 47.727396 18.04008018 62.3459017 5.9375 76.62890625 C-2.70822665 86.10530076 -15.23178176 92.31255623 -28.140625 92.9296875 C-44.31046099 93.15775559 -57.44829001 89.7831418 -69.8125 78.69140625 C-77.39109712 70.62965631 -83.27833822 58.72650011 -84.0625 47.62890625 C-84.14242187 46.55253906 -84.22234375 45.47617187 -84.3046875 44.3671875 C-84.81723874 30.66397942 -80.66837184 17.51480862 -71.8046875 6.93359375 C-52.07679908 -13.78378123 -23.58999239 -15.68198357 0 0 Z " fill="#7AB49D" transform="translate(763.0625,709.37109375)"/>
<path d="M0 0 C3.51440002 2.48283512 6.78414295 5.14333117 10 8 C10.62519531 8.54269531 11.25039063 9.08539063 11.89453125 9.64453125 C22.95396152 19.9050862 29.67681413 34.21608989 32 49 C32 52.63 32 56.26 32 60 C-12.55 60 -57.1 60 -103 60 C-103 41.94016594 -98.0641106 26.68095016 -86 13 C-85.34386719 12.24976563 -84.68773437 11.49953125 -84.01171875 10.7265625 C-62.12959476 -12.71571293 -27.0183249 -16.71830915 0 0 Z " fill="#282F2F" transform="translate(547,197)"/>
<path d="M0 0 C3.54441454 0.15901278 7.0498778 0.12345177 10.59667969 0.06445312 C26.0260758 0.16139553 26.0260758 0.16139553 31.23214722 3.76016235 C34.53078615 7.13114069 36.50282129 11.03836705 38.35845947 15.33514404 C39.545355 18.01570169 40.98904548 20.50304481 42.45602417 23.03775024 C43.82335343 25.42326512 45.10464645 27.84971011 46.38452148 30.28295898 C47.36174849 32.13916531 48.35241404 33.98775845 49.34472656 35.8359375 C55.0678879 46.59040402 55.0678879 46.59040402 55.27636719 49.40820312 C54.24755859 51.95092773 54.24755859 51.95092773 52.62792969 54.81054688 C51.74403564 56.38497559 51.74403564 56.38497559 50.84228516 57.99121094 C50.20178223 59.09819336 49.5612793 60.20517578 48.90136719 61.34570312 C48.2595752 62.47202148 47.6177832 63.59833984 46.95654297 64.75878906 C42.44235561 72.5999948 37.75903464 80.20503333 32.27636719 87.40820312 C31.80714844 88.26792725 31.33792969 89.12765137 30.85449219 90.01342773 C26.78174095 93.7965354 22.5318769 93.18135275 17.15917969 93.17773438 C16.06926727 93.18963303 14.97935486 93.20153168 13.85641479 93.21379089 C11.55163112 93.23033359 9.24672063 93.23368981 6.94189453 93.22485352 C3.41969939 93.22072461 -0.09675239 93.28575002 -3.61816406 93.35546875 C-5.85903935 93.36295015 -8.0999328 93.3663402 -10.34082031 93.36523438 C-11.91607986 93.40364189 -11.91607986 93.40364189 -13.52316284 93.44282532 C-20.66378399 93.33051706 -20.66378399 93.33051706 -23.66001892 90.72309875 C-25.21267315 88.68767462 -26.49151654 86.64965594 -27.72363281 84.40820312 C-28.26479736 83.5916626 -28.80596191 82.77512207 -29.36352539 81.93383789 C-29.77755615 81.24604248 -30.19158691 80.55824707 -30.61816406 79.84960938 C-31.09495605 79.0595752 -31.57174805 78.26954102 -32.06298828 77.45556641 C-34.63510634 73.11698211 -37.19223286 68.77068981 -39.72363281 64.40820312 C-40.20461426 63.58852051 -40.6855957 62.76883789 -41.18115234 61.92431641 C-42.51131683 59.64009647 -43.81004612 57.34107753 -45.09863281 55.03320312 C-45.49800049 54.3507251 -45.89736816 53.66824707 -46.30883789 52.96508789 C-47.99904057 49.85674501 -48.81958777 47.9699087 -48.21582031 44.43554688 C-47.72339844 43.43652344 -47.23097656 42.4375 -46.72363281 41.40820312 C-46.28253174 40.51004883 -46.28253174 40.51004883 -45.83251953 39.59375 C-43.96534778 35.91231121 -41.89964151 32.35359737 -39.80859375 28.79589844 C-37.725811 25.232161 -35.83745054 21.62928572 -34.02246094 17.9230957 C-25.71427041 2.14163989 -17.46415275 -0.84857933 0 0 Z " fill="#7AB49C" transform="translate(508.7236328125,412.591796875)"/>
<path d="M0 0 C11.75632978 8.18500285 17.47288412 20.4020005 20.375 34.12109375 C20.86642857 40.01823654 20.6875 45.95351019 20.6875 51.87109375 C-2.4125 51.87109375 -25.5125 51.87109375 -49.3125 51.87109375 C-44.91601845 63.4877828 -44.91601845 63.4877828 -36.546875 69.9609375 C-30.85837142 72.27810766 -23.32465671 71.87085516 -17.5703125 69.9609375 C-13.79271238 67.9831031 -11.16632595 65.91649472 -8.625 62.49609375 C-7.861875 61.62984375 -7.09875 60.76359375 -6.3125 59.87109375 C-0.88680862 59.97376331 2.73678772 62.48506544 7.0625 65.43359375 C7.70316406 65.85833984 8.34382812 66.28308594 9.00390625 66.72070312 C10.5712215 67.76168117 12.13023501 68.81514009 13.6875 69.87109375 C12.84511726 77.25510491 6.94713738 82.06947111 1.546875 86.7109375 C-9.83803834 94.99662443 -23.1418726 96.26322714 -36.765625 94.3984375 C-50.5904548 91.66295577 -61.26927844 84.72518584 -69.10522461 73.07202148 C-77.58650179 59.99409036 -78.2003124 45.08626326 -75.65234375 29.94921875 C-72.06062925 16.95063293 -63.91215719 5.94496112 -52.625 -1.37890625 C-35.30750574 -11.07034799 -16.73708464 -10.48247098 0 0 Z " fill="#7AB49D" transform="translate(536.3125,707.12890625)"/>
<path d="M0 0 C7.52214045 6.25496984 11.86782742 15.29420476 13.1875 24.875 C13.27147476 27.18156206 13.30531551 29.49025365 13.30102539 31.79833984 C13.30117142 32.4624588 13.30131744 33.12657776 13.3014679 33.81082153 C13.30077634 35.98589449 13.29301973 38.16087968 13.28515625 40.3359375 C13.28328938 41.85193841 13.28186675 43.36793992 13.28086853 44.88394165 C13.27706456 48.85904631 13.26725253 52.83411398 13.25616455 56.8092041 C13.2459047 60.87149556 13.24136114 64.93379304 13.23632812 68.99609375 C13.22562822 76.95574797 13.20804874 84.91536511 13.1875 92.875 C4.2775 92.875 -4.6325 92.875 -13.8125 92.875 C-13.84988281 88.79253906 -13.88726562 84.71007812 -13.92578125 80.50390625 C-13.96394737 77.22748423 -14.00501962 73.951127 -14.0480423 70.67476654 C-14.0925128 67.22794356 -14.1319857 63.78123679 -14.15893555 60.33422852 C-14.19016967 56.36970347 -14.24495104 52.40566404 -14.30078125 48.44140625 C-14.30717117 47.21917862 -14.3135611 45.99695099 -14.32014465 44.73768616 C-14.45890258 36.60236286 -14.90876963 29.37436737 -20.25 22.9375 C-24.9536122 19.15166579 -28.37298775 18.42688576 -34.34375 18.55859375 C-39.18670973 19.17928954 -41.86668745 21.85036973 -45.0625 25.3125 C-48.14330365 29.82367677 -49.06262544 33.5099303 -49.13134766 38.95043945 C-49.15121735 40.15130692 -49.17108704 41.35217438 -49.19155884 42.58943176 C-49.20311005 43.87605209 -49.21466125 45.16267242 -49.2265625 46.48828125 C-49.24528598 47.82636189 -49.26486027 49.16443087 -49.2852478 50.50248718 C-49.3364507 54.01226916 -49.37613936 57.52208938 -49.41339111 61.03204346 C-49.45350538 64.6184624 -49.50445852 68.20472643 -49.5546875 71.79101562 C-49.65232596 78.81895081 -49.73193502 85.84676532 -49.8125 92.875 C-59.0525 92.875 -68.2925 92.875 -77.8125 92.875 C-77.8125 60.535 -77.8125 28.195 -77.8125 -5.125 C-69.2325 -5.125 -60.6525 -5.125 -51.8125 -5.125 C-51.8125 -0.835 -51.8125 3.455 -51.8125 7.875 C-51.1525 7.875 -50.4925 7.875 -49.8125 7.875 C-49.56371094 7.12476563 -49.31492188 6.37453125 -49.05859375 5.6015625 C-46.60167693 0.22561285 -41.52945244 -2.96928142 -36.1953125 -5.23828125 C-23.29327835 -9.1836859 -11.0862502 -7.84194621 0 0 Z " fill="#7AB59D" transform="translate(209.8125,706.125)"/>
<path d="M0 0 C1.83498047 0.39832031 1.83498047 0.39832031 3.70703125 0.8046875 C5.40870788 1.1621554 7.11054346 1.51886715 8.8125 1.875 C9.71162109 2.07005127 10.61074219 2.26510254 11.53710938 2.46606445 C16.11755002 3.41152054 20.4523793 4.11055621 25.13671875 4.11328125 C36.87149204 4.19604363 36.87149204 4.19604363 40.8125 7.53613281 C44.31872538 11.57780181 46.9424701 16.1280213 49.60742188 20.74804688 C51.812945 24.31462214 54.48715297 27.41953869 57.25 30.5625 C57.72888672 31.11591064 58.20777344 31.66932129 58.70117188 32.23950195 C59.79417302 33.49876757 60.8959862 34.75037808 62 36 C56.5681045 48.5908552 38.9813796 56.21132563 27 61 C20.06569061 63.60036602 12.54494659 64.50988466 5.625 61.5625 C-1.33786236 54.76542008 -3.97671055 46.08228801 -4.30078125 36.53125 C-4.31952755 34.52091694 -4.32288261 32.51039365 -4.3125 30.5 C-4.31048584 29.4486084 -4.30847168 28.3972168 -4.30639648 27.31396484 C-4.19424061 18.52013868 -4.01367272 8.02734544 0 0 Z " fill="#7AB39C" transform="translate(441,510)"/>
<path d="M0 0 C10.42659131 5.39358254 19.57820761 12.81843494 28.2109375 20.71484375 C26.2974144 25.25946111 22.94119255 28.65661969 19.69580078 32.28271484 C17.10252781 35.24774785 14.92347321 38.0511827 13.140625 41.57421875 C10.46893457 46.6309765 8.19724437 50.76089952 2.49316406 52.58300781 C-3.89831429 53.83007672 -10.30651951 54.20414529 -16.80078125 54.49414062 C-20.48017511 54.76588671 -23.96706087 55.45688166 -27.55273438 56.30371094 C-30.00616166 56.75475587 -32.29991586 56.78173271 -34.7890625 56.71484375 C-37.15556113 46.60087939 -38.13154104 36.73133175 -38.2265625 26.33984375 C-38.24847656 25.25977051 -38.27039063 24.17969727 -38.29296875 23.06689453 C-38.27184758 14.44813783 -36.51031901 7.06885416 -31.9140625 -0.28515625 C-22.2957384 -9.33769658 -10.65879446 -4.91140529 0 0 Z " fill="#7AB39C" transform="translate(474.7890625,352.28515625)"/>
<path d="M0 0 C4.25484108 17.22197581 6.70727493 37.81746806 -2.05078125 53.93359375 C-4.4719093 57.83170339 -6.63775566 60.54591855 -11 62 C-26.40102805 64.11801957 -41.47540943 54.4440517 -53.3203125 45.55859375 C-61.26656553 39.26175878 -61.26656553 39.26175878 -63 35 C-62.10861328 34.06994141 -62.10861328 34.06994141 -61.19921875 33.12109375 C-54.57491521 26.04349416 -48.80007441 18.55803514 -43.19165039 10.65649414 C-42.79840576 10.10985107 -42.40516113 9.56320801 -42 9 C-41.56437744 8.29238525 -41.12875488 7.58477051 -40.67993164 6.85571289 C-38.45240724 4.39510935 -37.04196493 4.34594124 -33.7734375 4.0234375 C-32.74089844 3.91 -31.70835937 3.7965625 -30.64453125 3.6796875 C-29.56558594 3.57914063 -28.48664062 3.47859375 -27.375 3.375 C-25.25738144 3.15780835 -23.14017935 2.93651346 -21.0234375 2.7109375 C-19.99959961 2.60233398 -18.97576172 2.49373047 -17.92089844 2.38183594 C-14.53449217 1.93914625 -11.2826178 1.20020699 -7.96728516 0.39697266 C-5.29257181 -0.14274984 -2.71662874 -0.13931429 0 0 Z " fill="#7AB39C" transform="translate(584,511)"/>
<path d="M0 0 C7.41263302 5.31775847 9.83001416 12.6710249 11.41015625 21.39453125 C13.03103968 34.18452742 12.34951279 48.87979291 7.875 61.0625 C1.24788929 60.27571973 -5.3224559 59.26321566 -11.89819336 58.1262207 C-16.61187863 57.34205273 -20.89656171 57.0697961 -25.6875 57.25 C-29.8028877 56.98060833 -30.86886794 56.33345275 -33.7578125 53.27734375 C-35.99841237 50.27362566 -37.96682014 47.11422599 -39.92822266 43.92382812 C-41.75687065 41.07976197 -43.84246614 38.54202701 -46 35.9375 C-46.69867187 35.08929688 -47.39734375 34.24109375 -48.1171875 33.3671875 C-50.03580957 31.16487812 -52.03231502 29.09887956 -54.125 27.0625 C-52.57113471 22.7718268 -49.31396665 20.49213636 -45.8125 17.8125 C-45.18730469 17.33087402 -44.56210937 16.84924805 -43.91796875 16.35302734 C-31.84116228 7.18889824 -15.86079589 -4.75823877 0 0 Z " fill="#79B39C" transform="translate(575.125,347.9375)"/>
<path d="M0 0 C7.02111013 1.73231128 13.52365413 3.77737029 20 7 C21.02222656 7.49371094 22.04445313 7.98742187 23.09765625 8.49609375 C32.82908844 13.4244097 43.96592091 20.24245576 48 31 C49.17298921 36.60125081 48.52046544 40.8216543 45.5 45.6875 C35.10009019 59.40960322 19.09681576 66.28350792 3 71 C2.01 71 1.02 71 0 71 C-0.1959375 70.19820313 -0.391875 69.39640625 -0.59375 68.5703125 C-2.76108549 60.33070085 -5.65570219 52.83356546 -9.26953125 45.13134766 C-9.77613281 44.04345947 -9.77613281 44.04345947 -10.29296875 42.93359375 C-10.74965942 41.9753772 -10.74965942 41.9753772 -11.21557617 40.99780273 C-12.50450046 37.71511756 -13.33296314 35.17407386 -12.35083008 31.7109375 C-11.99400146 30.94007813 -11.63717285 30.16921875 -11.26953125 29.375 C-10.88015381 28.5089917 -10.49077637 27.6429834 -10.08959961 26.75073242 C-9.66815674 25.84299072 -9.24671387 24.93524902 -8.8125 24 C-5.2718999 16.09984361 -2.2238873 8.38234446 0 0 Z " fill="#7AB39C" transform="translate(591,424)"/>
<path d="M0 0 C0.36351562 1.13695312 0.72703125 2.27390625 1.1015625 3.4453125 C1.60778448 5.00572522 2.11572246 6.56558186 2.625 8.125 C2.89062744 8.9394458 3.15625488 9.7538916 3.42993164 10.59301758 C5.539412 16.92517361 8.07096159 22.8825001 10.99609375 28.88671875 C13.377595 36.27215259 9.59729628 42.72599407 6.5625 49.375 C3.58942995 55.89414886 1.31568889 61.93985522 0 69 C-16.20743457 66.81360907 -35.05672018 57.90033342 -45.53515625 45.12890625 C-48.18350974 41.34449027 -49.89536252 37.91473384 -49.5390625 33.1328125 C-46.85615315 22.51782334 -38.07827115 15.3460124 -29.13256836 9.90063477 C-7.89527281 -2.49245852 -7.89527281 -2.49245852 0 0 Z " fill="#7AB39C" transform="translate(433,426)"/>
<path d="M0 0 C6.6842061 3.67557231 11.91993249 9.81291022 14.28515625 17.08203125 C15.85633079 25.42704319 15.6354827 33.6697069 11.3203125 41.08984375 C7.32695226 46.48809698 2.46959387 51.08647792 -4.30078125 52.28125 C-12.35461896 53.2002299 -18.66413206 52.10473409 -25.30078125 47.28125 C-32.33462624 40.18915371 -33.79437892 32.481159 -33.80273438 22.75854492 C-33.61166616 16.05161619 -31.90201788 11.29901963 -27.30078125 6.28125 C-19.62160495 -0.74714865 -10.28204007 -3.21204647 0 0 Z " fill="#272E2E" transform="translate(295.30078125,724.71875)"/>
<path d="M0 0 C6.59010991 3.79787178 10.74944402 9.68953464 13.08984375 16.87890625 C15.07627476 25.7932206 13.01576899 34.06430989 8.46484375 41.88671875 C4.74257768 46.89600563 -0.69918428 49.08722809 -6.4375 51 C-14.16747829 51.99284125 -20.02059347 50.38876509 -26.4375 46 C-32.217799 40.98635119 -34.97857289 35.26802213 -35.7890625 27.73046875 C-36.11865051 19.72494947 -35.3189857 13.4974258 -30.4375 7 C-21.9124188 -2.00284406 -11.96164037 -5.41727786 0 0 Z " fill="#282E2F" transform="translate(741.4375,726)"/>
<path d="M0 0 C6.5460031 3.86254841 11.71949227 9.74824549 13.8125 17.125 C15.74720551 26.51453406 14.41570195 33.9127274 9.5625 42.3125 C5.04207966 47.5620204 0.27185129 50.89148641 -6.70703125 51.68359375 C-14.26404574 51.8252357 -19.82895427 51.71235566 -25.4375 46.3125 C-32.62201205 38.61250726 -33.91201506 31.12633389 -33.7578125 20.76171875 C-33.12263384 13.92192903 -30.22108775 8.23678151 -25.4375 3.3125 C-17.95277105 -2.18648454 -8.75043874 -4.14142902 0 0 Z " fill="#272E2F" transform="translate(853.4375,725.6875)"/>
<path d="M0 0 C6.64380802 3.78579751 10.78733998 9.65546469 13.15625 16.875 C14.80514717 24.35000051 13.91216829 32.09694659 10.625 39 C6.70230694 44.70734171 2.51634225 49.33273978 -4.375 51 C-11.90950658 51.7831566 -18.59130029 52.15897569 -24.83203125 47.421875 C-30.82256385 41.90148546 -33.94132821 35.50429579 -34.578125 27.421875 C-34.74265545 18.04363923 -32.89446776 10.03079856 -26.375 3 C-18.45800277 -3.0169179 -9.18807136 -4.15484866 0 0 Z " fill="#272E2F" transform="translate(629.375,726)"/>
<path d="M0 0 C6.60378131 2.92065475 11.69732471 8.57482586 14.62109375 15.1328125 C17.54735201 24.47854981 15.93398385 33.75619839 11.68359375 42.3828125 C9.01151975 47.10806101 5.24749828 49.72210888 0.2734375 51.68359375 C-6.39515572 53.48401334 -12.94154431 53.48670016 -19.19140625 50.3828125 C-25.59303797 46.28158565 -29.36186535 40.67272179 -31.31640625 33.3828125 C-32.10503797 25.37197447 -32.60901209 17.21700837 -27.9453125 10.28125 C-20.1557636 1.20278294 -12.16524118 -3.24132902 0 0 Z " fill="#272E2F" transform="translate(405.31640625,724.6171875)"/>
<path d="M0 0 C5.34382246 3.56958891 9.22149259 7.72786735 11 14 C12.05406545 21.86745758 11.20435896 29.17382169 7 36 C1.91426296 41.96336423 -3.86671655 45.31298913 -11.59765625 46.34765625 C-19.53905031 46.78326014 -25.8273181 44.62688807 -31.8515625 39.390625 C-37.89795675 32.89745285 -39.7274618 25.80542372 -39.47265625 17.03125 C-38.38218461 10.03781202 -34.45073031 4.8396199 -29 0.5 C-19.63091705 -5.75784031 -9.60315326 -5.74761217 0 0 Z " fill="#282F2F" transform="translate(526,439)"/>
<path d="M0 0 C4.68726373 2.47629027 8.65135698 5.57244256 11.25 10.25 C13.00840426 16.69748229 12.40614291 21.48440198 9.20703125 27.23828125 C6.52689361 31.1500679 3.56233357 33.08921992 -1 34 C-6.40460636 34.60939184 -10.89311074 34.39960115 -15.4921875 31.30859375 C-19.27166375 28.02847836 -20.68896413 24.96628763 -21.44921875 20.16015625 C-21.81586857 13.69897166 -21.05764242 9.4453112 -16.69921875 4.55859375 C-11.74209937 0.01171873 -6.52473937 -1.06598076 0 0 Z " fill="#282E2F" transform="translate(439,285)"/>
<path d="M0 0 C3.43408657 3.23937032 5.77176398 6.44990144 6.203125 11.26953125 C6.30169456 16.61692994 6.16143318 20.46861245 3 25 C-1.20341082 29.22638028 -4.83945419 31.13817147 -10.8125 31.3125 C-15.67756573 31.2416839 -18.34222335 30.39650689 -22 27 C-26.2620606 21.728504 -26.78731352 16.89473613 -26.5859375 10.171875 C-25.63806557 5.04072826 -23.03379589 2.15431 -19 -1 C-12.74132115 -4.75520731 -6.12246866 -3.40137148 0 0 Z " fill="#272E2F" transform="translate(601,288)"/>
<path d="M0 0 C4.81442244 2.03212308 8.35419206 5.48968397 10.9375 10 C11.5975 12.97 12.2575 15.94 12.9375 19 C-0.5925 19 -14.1225 19 -28.0625 19 C-25.26431116 10.60543348 -22.94636177 5.30230472 -15.6875 0.5625 C-10.17284136 -1.81450803 -5.62996175 -1.66290376 0 0 Z " fill="#282F2F" transform="translate(515.0625,721)"/>
<path d="M0 0 C6.02935715 -0.32300128 11.53281798 0.31780615 17.4375 1.4375 C18.50291016 1.639198 18.50291016 1.639198 19.58984375 1.8449707 C24.71356495 2.85678247 24.71356495 2.85678247 27 4 C26.26494987 8.58061727 24.7494013 12.74000777 23.125 17.0625 C22.74021484 18.12307617 22.74021484 18.12307617 22.34765625 19.20507812 C22.09113281 19.89150391 21.83460938 20.57792969 21.5703125 21.28515625 C21.34102051 21.90269775 21.11172852 22.52023926 20.87548828 23.15649414 C19.83890842 25.33920873 18.49791899 27.11103598 17 29 C16.66266846 28.40574219 16.32533691 27.81148438 15.9777832 27.19921875 C14.42445054 24.46514066 12.86849316 21.73256478 11.3125 19 C10.78205078 18.06542969 10.25160156 17.13085938 9.70507812 16.16796875 C6.58733526 10.6975733 3.37765037 5.31400281 0 0 Z " fill="#7BB69E" transform="translate(553,417)"/>
<path d="M0 0 C0.66 0 1.32 0 2 0 C2.26627197 0.49290527 2.53254395 0.98581055 2.80688477 1.49365234 C9.7003355 14.25498817 9.7003355 14.25498817 17.8203125 26.25 C19 28 19 28 19 30 C10.09 28.35 1.18 26.7 -8 25 C-4.625 11.5 -4.625 11.5 -2.3125 5.75 C-1.87550781 4.65171875 -1.43851562 3.5534375 -0.98828125 2.421875 C-0.66214844 1.62265625 -0.33601563 0.8234375 0 0 Z " fill="#7AB49C" transform="translate(452,474)"/>
<path d="M0 0 C-2.69423521 5.71177864 -5.81677404 10.93655218 -9.25 16.234375 C-11.6732521 20.06397877 -13.86034938 24.00664285 -16 28 C-16.66 28 -17.32 28 -18 28 C-24.51936219 12.43963554 -24.51936219 12.43963554 -26 4 C-17.22311324 1.4346967 -9.16883074 -0.19101731 0 0 Z " fill="#7BB59D" transform="translate(470,417)"/>
<path d="M0 0 C0.66 0 1.32 0 2 0 C3.34146494 3.43438215 4.67175905 6.87298417 6 10.3125 C6.3815625 11.28896484 6.763125 12.26542969 7.15625 13.27148438 C7.5171875 14.20927734 7.878125 15.14707031 8.25 16.11328125 C8.58515625 16.97735596 8.9203125 17.84143066 9.265625 18.73168945 C10 21 10 21 10 24 C1.32210784 26.25824035 -7.04211664 27.57483041 -16 28 C-10.66666667 18.66666667 -5.33333333 9.33333333 0 0 Z " fill="#7BB69E" transform="translate(570,475)"/>
<path d="M0 0 C10.56 0 21.12 0 32 0 C29.91434275 4.1713145 27.48350414 7.47664604 24.625 11.125 C24.14289062 11.75792969 23.66078125 12.39085937 23.1640625 13.04296875 C18.73916644 18.70635474 18.73916644 18.70635474 15 20 C13.0609583 17.75131288 11.12372378 15.50111139 9.1875 13.25 C8.64029297 12.61578125 8.09308594 11.9815625 7.52929688 11.328125 C0 2.56676136 0 2.56676136 0 0 Z " fill="#7CB89F" transform="translate(496,518)"/>
<path d="M0 0 C3.70398737 1.52368571 5.84748725 3.72159106 8.5 6.6875 C9.2528125 7.51636719 10.005625 8.34523438 10.78125 9.19921875 C13 12 13 12 17 19 C6.44 19 -4.12 19 -15 19 C-12.19304999 14.78957498 -9.74677524 11.44928099 -6.375 7.8125 C-4.01029249 5.25531629 -1.93492649 2.90238974 0 0 Z " fill="#7DB8A0" transform="translate(511,383)"/>
<path d="M0 0 C1.20970459 0.00523682 2.41940918 0.01047363 3.66577148 0.01586914 C4.97094727 0.0190918 6.27612305 0.02231445 7.62084961 0.02563477 C9.00952213 0.03399138 10.39819401 0.04245634 11.78686523 0.05102539 C13.17944179 0.05603873 14.57202005 0.06060193 15.96459961 0.06469727 C19.38456394 0.07653105 22.80444367 0.09301659 26.22436523 0.11352539 C26.22436523 0.44352539 26.22436523 0.77352539 26.22436523 1.11352539 C16.98436523 1.11352539 7.74436523 1.11352539 -1.77563477 1.11352539 C-1.77563477 17.94352539 -1.77563477 34.77352539 -1.77563477 52.11352539 C-8.77563477 46.11352539 -8.77563477 46.11352539 -9.77563477 44.11352539 C-5.90063477 45.98852539 -5.90063477 45.98852539 -4.77563477 47.11352539 C-4.76017357 46.25241905 -4.76017357 46.25241905 -4.74440002 45.37391663 C-4.63656042 39.42086877 -4.521945 33.46797924 -4.40332031 27.51513672 C-4.35989889 25.29088643 -4.31822932 23.06660124 -4.27832031 20.84228516 C-4.2207917 17.65264344 -4.15704792 14.46317859 -4.09204102 11.27368164 C-4.06697227 9.7721328 -4.06697227 9.7721328 -4.04139709 8.24024963 C-4.02145187 7.31937057 -4.00150665 6.39849152 -3.98095703 5.44970703 C-3.96541275 4.63474258 -3.94986847 3.81977814 -3.93385315 2.9801178 C-3.67458687 -0.07859425 -3.10831086 0.12713207 0 0 Z " fill="#202025" transform="translate(421.775634765625,659.886474609375)"/>
<path d="M0 0 C7.35500508 -0.02333293 14.71000196 -0.04102059 22.06503677 -0.05181217 C25.48152234 -0.0569957 28.89798229 -0.06400934 32.31445312 -0.07543945 C36.25650713 -0.08854303 40.19855133 -0.09326561 44.140625 -0.09765625 C45.34736877 -0.10281754 46.55411255 -0.10797882 47.79742432 -0.11329651 C55.24909921 -0.11378158 62.58552313 0.25320712 70 1 C70 1.33 70 1.66 70 2 C47.56 2 25.12 2 2 2 C1.67 2.66 1.34 3.32 1 4 C0.67 2.68 0.34 1.36 0 0 Z " fill="#212226" transform="translate(487,759)"/>
<path d="M0 0 C0.66 0.66 1.32 1.32 2 2 C-5.11389522 9.66742597 -5.11389522 9.66742597 -10 11 C-6.79239749 7.19364503 -3.59253891 3.45436433 0 0 Z " fill="#232628" transform="translate(327,782)"/>
<path d="M0 0 C0.66 0 1.32 0 2 0 C3.03046722 1.78614318 4.04913236 3.57910018 5.0625 5.375 C5.63097656 6.37273437 6.19945312 7.37046875 6.78515625 8.3984375 C7.38650391 9.68621094 7.38650391 9.68621094 8 11 C7.67 11.66 7.34 12.32 7 13 C5.02 10.03 3.04 7.06 1 4 C0.34 4.66 -0.32 5.32 -1 6 C-0.67 4.02 -0.34 2.04 0 0 Z " fill="#81C1A7" transform="translate(452,474)"/>
<path d="M0 0 C0.99 0.33 1.98 0.66 3 1 C2.51789063 1.36351562 2.03578125 1.72703125 1.5390625 2.1015625 C-2.57776088 5.37821784 -4.85437362 7.65374355 -6 13 C-6.33 13 -6.66 13 -7 13 C-7.34751969 10.08083462 -7.53280018 7.86804524 -5.95703125 5.30078125 C-4.15362765 3.11660035 -2.55587616 1.27793808 0 0 Z " fill="#7FBFA4" transform="translate(361,259)"/>
<path d="M0 0 C0.33 0 0.66 0 1 0 C1 3.96 1 7.92 1 12 C0.34 11.67 -0.32 11.34 -1 11 C-1.484375 9.00390625 -1.484375 9.00390625 -1.75 6.5625 C-1.84796875 5.75941406 -1.9459375 4.95632813 -2.046875 4.12890625 C-2 2 -2 2 0 0 Z " fill="#1D1C21" transform="translate(420,788)"/>
<path d="M0 0 C0.33 0.99 0.66 1.98 1 3 C-0.30208796 5.02048131 -1.63988391 7.01811655 -3 9 C-4.24324147 12.2249208 -4.24324147 12.2249208 -5 15 C-5.33 15 -5.66 15 -6 15 C-5.61471495 8.83543922 -3.52913975 5.01372252 0 0 Z " fill="#212025" transform="translate(433,346)"/>
<path d="M0 0 C0 3 0 3 -1.75 4.82421875 C-2.4925 5.43910156 -3.235 6.05398437 -4 6.6875 C-4.7425 7.31011719 -5.485 7.93273437 -6.25 8.57421875 C-6.8275 9.04472656 -7.405 9.51523438 -8 10 C-8.66 9.67 -9.32 9.34 -10 9 C-8.89902432 7.87187697 -7.79408444 6.74762189 -6.6875 5.625 C-6.07261719 4.99851563 -5.45773437 4.37203125 -4.82421875 3.7265625 C-3 2 -3 2 0 0 Z " fill="#83C6AA" transform="translate(459,183)"/>
<path d="M0 0 C0 3 0 3 -2.3125 5.6875 C-5 8 -5 8 -8 8 C-5.36 5.36 -2.72 2.72 0 0 Z " fill="#84C7AB" transform="translate(698,710)"/>
<path d="M0 0 C0.99 0.33 1.98 0.66 3 1 C0.69 3.64 -1.62 6.28 -4 9 C-4.33 8.34 -4.66 7.68 -5 7 C-3.35 4.69 -1.7 2.38 0 0 Z " fill="#212226" transform="translate(603,729)"/>
<path d="M0 0 C0 3 0 3 -1.3125 4.38671875 C-2.875 5.59114583 -4.4375 6.79557292 -6 8 C-6.66 7.67 -7.32 7.34 -8 7 C-5.36 4.69 -2.72 2.38 0 0 Z " fill="#1E1E23" transform="translate(473,199)"/>
<path d="M0 0 C0.33 0 0.66 0 1 0 C1 2.97 1 5.94 1 9 C1.66 9 2.32 9 3 9 C2.34 10.32 1.68 11.64 1 13 C0.67 13 0.34 13 0 13 C0 8.71 0 4.42 0 0 Z " fill="#1B181D" transform="translate(595,701)"/>
<path d="M0 0 C3.36720387 1.39332574 4.9859524 2.9789286 7 6 C6.401875 5.67 5.80375 5.34 5.1875 5 C2.94613529 3.79212012 2.94613529 3.79212012 0 4 C-0.66 3.67 -1.32 3.34 -2 3 C-1.34 2.01 -0.68 1.02 0 0 Z " fill="#7DBBA1" transform="translate(511,383)"/>
</svg>
